<?xml version="1.0" encoding="utf-8"?>
<!-- Generator: Adobe Illustrator 24.0.1, SVG Export Plug-In . SVG Version: 6.00 Build 0)  -->
<svg version="1.1" id="Camada_1" xmlns="http://www.w3.org/2000/svg" xmlns:xlink="http://www.w3.org/1999/xlink" x="0px" y="0px"
	 viewBox="0 0 512 512" style="enable-background:new 0 0 512 512;" xml:space="preserve">
<style type="text/css">
	.st0{fill:#E78A6A;}
	.st1{fill:#EFCA8C;}
	.st2{fill:#CFCA77;}
	.st3{fill:#88935E;}
</style>
<g>
	<path class="st0" d="M78.6,317.3c0,0-4,25.4,19.8,25.4s19.8-25.4,19.8-25.4s-20.4-19.9-19.8-42.4C97.8,297.4,78.6,317.3,78.6,317.3
		z"/>
	<path class="st1" d="M98.4,274.8L98.4,274.8c0,0,0,0.1,0,0.1C98.4,274.8,98.4,274.8,98.4,274.8z M98.3,199.5L98.3,199.5
		c-8.6,10.6-13.2,20.9-14.9,30.6c11,13.1,15,30.2,14.9,44.6c0,0,0,0,0,0c-0.1-14.3,3.9-31.2,14.8-44.4
		C111.6,220.5,106.9,210.1,98.3,199.5L98.3,199.5z"/>
	<path class="st2" d="M98.4,274.9c19.7-0.2,37.8,1.4,49.9-1c34.4-7.1,47-36.5,48.5-59.8c-19.7,0.2-37.8-1.4-49.9,1
		C112.4,222.2,99.9,251.7,98.4,274.9z M30.9,213.8c-9.3,0-19.8,0.5-30.9,0.3c1.5,23.2,14.1,52.7,48.5,59.8c12.1,2.5,30.1,0.8,49.9,1
		c-1.5-23.2-14.1-52.7-48.5-59.8C44.6,214,38.1,213.8,30.9,213.8z"/>
	<path class="st3" d="M137.9,169.7l-38.3,28.8c8.5,10.2,13.4,20.3,15.3,29.8c6.7-7.3,15.7-13.2,27.6-16.6c2.8-0.8,6-1.4,9.5-1.8
		C152.5,194,145.6,179.3,137.9,169.7z M58.7,169.7c-7.7,9.6-14.6,24.2-14,40.2c3.5,0.5,6.8,1,9.6,1.9c11.8,3.3,20.8,9.2,27.4,16.4
		c2-9.5,6.8-19.5,15.3-29.7L58.7,169.7z"/>
</g>
<g>
	<path class="st3" d="M197.9,317.6v-28.2c0-3.6,0.8-6.9,2.5-9.9c1.7-3,4-5.4,7.2-7.2s6.9-2.7,11.3-2.7c2.1,0,4.3,0.3,6.4,0.9
		c2.1,0.6,4.1,1.6,6,2.9c1.8,1.4,3.3,3.2,4.4,5.6h0.1c1.2-2.3,2.8-4.2,4.6-5.6c1.8-1.4,3.8-2.4,6-2.9c2.1-0.6,4.3-0.9,6.5-0.9
		c4.3,0,8.1,0.9,11.2,2.7c3.1,1.8,5.5,4.2,7.2,7.2c1.7,3,2.5,6.3,2.5,9.9v28.2h-8.4v-28.2c0-2.3-0.6-4.4-1.7-6.3
		c-1.1-1.9-2.6-3.4-4.5-4.5c-1.9-1.1-4-1.7-6.4-1.7c-2.3,0-4.5,0.6-6.4,1.7c-2,1.1-3.5,2.6-4.6,4.5c-1.1,1.9-1.7,4-1.7,6.3v28.2
		h-8.4v-28.2c0-2.3-0.6-4.4-1.7-6.3c-1.1-1.9-2.7-3.4-4.6-4.5c-1.9-1.1-4.1-1.7-6.5-1.7c-2.3,0-4.4,0.5-6.3,1.7
		c-1.9,1.1-3.4,2.6-4.5,4.5c-1.1,1.9-1.7,4-1.7,6.3v28.2H197.9z"/>
	<path class="st3" d="M306.5,318.7c-4.5,0-8.4-1.1-11.8-3.3c-3.3-2.2-5.8-5.1-7.6-8.9c-1.8-3.7-2.7-7.9-2.7-12.4
		c0-4.6,1-8.7,2.9-12.4c2-3.7,4.8-6.6,8.4-8.8c3.7-2.2,8.1-3.3,13.2-3.3c5,0,9.2,1.1,12.8,3.2c3.5,2.1,6.3,5,8.2,8.7
		c1.9,3.7,2.9,7.8,2.9,12.3v23.7h-8.5v-9.5h-0.2c-0.9,1.8-2.2,3.5-3.7,5.1c-1.6,1.6-3.5,3-5.8,4
		C312.3,318.2,309.6,318.7,306.5,318.7z M308.7,311.5c3.1,0,5.8-0.7,8.1-2.3c2.4-1.5,4.2-3.6,5.5-6.2c1.3-2.7,2-5.6,2-9
		c0-3.2-0.6-6.2-1.9-8.7c-1.3-2.6-3-4.6-5.4-6.1c-2.3-1.5-5-2.2-8.2-2.2c-3.3,0-6.1,0.8-8.5,2.3c-2.4,1.5-4.2,3.6-5.4,6.2
		c-1.3,2.6-1.9,5.6-1.9,8.9c0,3.2,0.6,6.1,1.8,8.7c1.2,2.6,3,4.7,5.3,6.2S305.4,311.5,308.7,311.5z"/>
	<path class="st3" d="M346,317.6v-33.5c0-4.2,1.2-7.4,3.5-9.8c2.4-2.4,5.6-3.5,9.8-3.5h9.6v7.3h-8.1c-2,0-3.6,0.6-4.7,1.7
		c-1.1,1.2-1.7,2.8-1.7,4.9v33H346z"/>
	<path class="st3" d="M382.7,317.6v-39.6h-8.2v-7.3h8.2v-6.9c0-4.2,1.2-7.4,3.5-9.8c2.4-2.4,5.6-3.5,9.8-3.5h10.1v7.3h-8.4
		c-2.1,0-3.7,0.6-4.8,1.7c-1.1,1.2-1.7,2.8-1.7,4.9v6.3h31.6v46.8h-8.4v-39.6h-23.1v39.6H382.7z M418.6,263.2c-1.5,0-2.9-0.6-4-1.7
		c-1.1-1.1-1.7-2.5-1.7-4c0-1.5,0.6-2.9,1.7-4c1.1-1.1,2.5-1.7,4-1.7c1.6,0,2.9,0.6,4,1.7c1.1,1.1,1.7,2.5,1.7,4
		c0,1.5-0.6,2.9-1.7,4C421.6,262.6,420.2,263.2,418.6,263.2z"/>
	<path class="st3" d="M436.3,317.6v-28.2c0-3.6,0.8-6.9,2.5-9.9c1.7-3,4-5.4,7.2-7.2c3.1-1.8,6.9-2.7,11.3-2.7
		c2.1,0,4.3,0.3,6.4,0.9c2.1,0.6,4.1,1.6,6,2.9c1.8,1.4,3.3,3.2,4.4,5.6h0.1c1.2-2.3,2.8-4.2,4.6-5.6c1.8-1.4,3.8-2.4,6-2.9
		c2.1-0.6,4.3-0.9,6.5-0.9c4.3,0,8.1,0.9,11.2,2.7c3.1,1.8,5.5,4.2,7.2,7.2c1.7,3,2.5,6.3,2.5,9.9v28.2h-8.4v-28.2
		c0-2.3-0.6-4.4-1.7-6.3c-1.1-1.9-2.6-3.4-4.5-4.5s-4-1.7-6.4-1.7c-2.3,0-4.5,0.6-6.4,1.7c-2,1.1-3.5,2.6-4.6,4.5
		c-1.1,1.9-1.7,4-1.7,6.3v28.2h-8.4v-28.2c0-2.3-0.6-4.4-1.7-6.3c-1.1-1.9-2.7-3.4-4.6-4.5c-1.9-1.1-4.1-1.7-6.5-1.7
		c-2.3,0-4.4,0.5-6.3,1.7s-3.4,2.6-4.5,4.5c-1.1,1.9-1.7,4-1.7,6.3v28.2H436.3z"/>
</g>
</svg>
