<?xml version="1.0" encoding="utf-8"?>
<!-- Generator: Adobe Illustrator 24.0.1, SVG Export Plug-In . SVG Version: 6.00 Build 0)  -->
<svg version="1.1" id="Camada_1" xmlns="http://www.w3.org/2000/svg" xmlns:xlink="http://www.w3.org/1999/xlink" x="0px" y="0px"
	 viewBox="0 0 512 512" style="enable-background:new 0 0 512 512;" xml:space="preserve">
<style type="text/css">
	.st0{fill:#E78A6A;}
	.st1{fill:#EFCA8C;}
	.st2{fill:#CFCA77;}
	.st3{fill:#88935E;}
</style>
<g>
	<path class="st0" d="M209,352.3c0,0-9.6,60.7,47.3,60.7s47.3-60.7,47.3-60.7s-48.6-47.5-47.3-101.2
		C254.9,304.7,209,352.3,209,352.3z"/>
	<path class="st1" d="M256.3,250.8L256.3,250.8c0,0.1,0,0.2,0,0.3C256.3,251,256.3,250.9,256.3,250.8z M256.1,71.2l-0.2,0.2
		c-20.4,25.1-31.4,49.7-35.2,72.9c26.3,31.4,35.8,72,35.6,106.3c0,0,0,0,0,0c-0.1-34.2,9.3-74.6,35.3-105.9
		C287.7,121.3,276.7,96.5,256.1,71.2L256.1,71.2z"/>
	<path class="st2" d="M256.3,251.1c47.1-0.5,90.2,3.4,119-2.5c82.2-16.8,112.1-87.2,115.8-142.6c-47.1,0.5-90.2-3.4-119,2.5
		C289.8,125.2,259.9,195.7,256.3,251.1z M95.3,105.1c-22.1,0-47.3,1.1-73.8,0.8c3.7,55.4,33.6,125.8,115.8,142.6
		c28.8,5.9,71.9,1.9,119,2.5c-3.7-55.4-33.6-125.8-115.8-142.6C127.9,105.8,112.5,105.2,95.3,105.1z"/>
	<path class="st3" d="M350.5,0l-91.4,68.8c20.4,24.4,31.9,48.4,36.5,71.2c15.9-17.4,37.4-31.6,65.8-39.6c6.7-1.9,14.3-3.3,22.6-4.4
		C385.4,57.9,369,22.8,350.5,0z M161.6,0c-18.4,22.8-34.9,57.9-33.5,96c8.4,1.1,16.2,2.5,23,4.4c28.2,7.9,49.6,22,65.5,39.2
		c4.7-22.7,16.2-46.5,36.4-70.8L161.6,0z"/>
</g>
<g>
	<path class="st3" d="M75.6,510.7v-32.4c0-4.2,1-8,2.9-11.4c1.9-3.4,4.6-6.2,8.2-8.2c3.6-2,7.9-3.1,13-3.1c2.5,0,4.9,0.3,7.4,1
		c2.5,0.7,4.8,1.8,6.9,3.4c2.1,1.6,3.8,3.7,5.1,6.4h0.1c1.4-2.7,3.2-4.8,5.3-6.4c2.1-1.6,4.4-2.7,6.9-3.4c2.5-0.7,5-1,7.5-1
		c5,0,9.3,1,12.9,3.1c3.6,2,6.3,4.8,8.2,8.2c1.9,3.4,2.9,7.2,2.9,11.4v32.4H153v-32.4c0-2.7-0.6-5.1-1.9-7.3c-1.3-2.2-3-3.9-5.1-5.2
		c-2.1-1.3-4.6-1.9-7.3-1.9c-2.7,0-5.1,0.7-7.4,2c-2.3,1.3-4,3-5.3,5.2c-1.3,2.1-2,4.6-2,7.2v32.4h-9.7v-32.4c0-2.7-0.6-5.1-2-7.2
		c-1.3-2.1-3.1-3.9-5.3-5.2c-2.2-1.3-4.7-2-7.4-2c-2.7,0-5.1,0.6-7.2,1.9s-3.9,3-5.1,5.2c-1.3,2.2-1.9,4.6-1.9,7.3v32.4H75.6z"/>
	<path class="st3" d="M200.5,512c-5.2,0-9.7-1.3-13.5-3.8c-3.8-2.5-6.7-5.9-8.8-10.2c-2-4.3-3.1-9-3.1-14.3c0-5.3,1.1-10,3.4-14.3
		c2.3-4.3,5.5-7.6,9.7-10.1c4.2-2.5,9.3-3.7,15.2-3.7c5.7,0,10.6,1.2,14.7,3.7c4.1,2.5,7.2,5.8,9.4,10c2.2,4.2,3.3,8.9,3.3,14.1
		v27.2h-9.8v-11h-0.2c-1.1,2-2.5,4-4.3,5.9c-1.8,1.9-4,3.4-6.7,4.6C207.2,511.4,204.1,512,200.5,512z M203.1,503.7
		c3.5,0,6.6-0.9,9.3-2.6c2.7-1.7,4.8-4.1,6.3-7.2s2.3-6.5,2.3-10.3c0-3.7-0.7-7.1-2.2-10s-3.5-5.3-6.2-7c-2.7-1.7-5.8-2.6-9.4-2.6
		c-3.8,0-7.1,0.9-9.8,2.6c-2.7,1.8-4.8,4.1-6.2,7.1c-1.4,3-2.2,6.4-2.2,10.2c0,3.7,0.7,7,2.1,10c1.4,3,3.4,5.4,6.1,7.1
		S199.3,503.7,203.1,503.7z"/>
	<path class="st3" d="M246,510.7v-38.5c0-4.8,1.4-8.5,4.1-11.2c2.7-2.7,6.5-4.1,11.2-4.1h11.1v8.3h-9.3c-2.3,0-4.1,0.7-5.4,2
		c-1.3,1.3-2,3.2-2,5.6v37.9H246z"/>
	<path class="st3" d="M288.3,510.7v-45.5h-9.4v-8.3h9.4V449c0-4.8,1.4-8.5,4.1-11.2c2.7-2.7,6.5-4.1,11.2-4.1h11.6v8.3h-9.7
		c-2.4,0-4.2,0.7-5.5,2c-1.3,1.3-1.9,3.2-1.9,5.6v7.3h36.3v53.8h-9.7v-45.5h-26.6v45.5H288.3z M329.5,448.1c-1.8,0-3.3-0.6-4.6-2
		c-1.3-1.3-2-2.8-2-4.6c0-1.8,0.6-3.3,2-4.6c1.3-1.3,2.8-2,4.6-2c1.8,0,3.4,0.6,4.6,2c1.3,1.3,1.9,2.8,1.9,4.6
		c0,1.8-0.6,3.3-1.9,4.6C332.9,447.5,331.4,448.1,329.5,448.1z"/>
	<path class="st3" d="M349.8,510.7v-32.4c0-4.2,1-8,2.9-11.4c1.9-3.4,4.6-6.2,8.2-8.2c3.6-2,7.9-3.1,13-3.1c2.5,0,4.9,0.3,7.4,1
		c2.5,0.7,4.8,1.8,6.9,3.4c2.1,1.6,3.8,3.7,5.1,6.4h0.1c1.4-2.7,3.2-4.8,5.3-6.4c2.1-1.6,4.4-2.7,6.9-3.4c2.5-0.7,5-1,7.5-1
		c5,0,9.3,1,12.9,3.1c3.6,2,6.3,4.8,8.2,8.2c1.9,3.4,2.9,7.2,2.9,11.4v32.4h-9.7v-32.4c0-2.7-0.6-5.1-1.9-7.3
		c-1.3-2.2-3-3.9-5.1-5.2c-2.1-1.3-4.6-1.9-7.3-1.9c-2.7,0-5.1,0.7-7.4,2c-2.3,1.3-4,3-5.3,5.2c-1.3,2.1-2,4.6-2,7.2v32.4h-9.7
		v-32.4c0-2.7-0.6-5.1-2-7.2c-1.3-2.1-3.1-3.9-5.3-5.2c-2.2-1.3-4.7-2-7.4-2c-2.7,0-5.1,0.6-7.2,1.9c-2.1,1.3-3.9,3-5.1,5.2
		c-1.3,2.2-1.9,4.6-1.9,7.3v32.4H349.8z"/>
</g>
</svg>
